<?xml version="1.0" encoding="UTF-8"?>
<svg width="41px" height="34px" viewBox="0 0 41 34" version="1.1" xmlns="http://www.w3.org/2000/svg" xmlns:xlink="http://www.w3.org/1999/xlink">
    <title>mouth</title>
    <g id="Page-1" stroke="none" stroke-width="1" fill="none" fill-rule="evenodd">
        <g id="mouth" transform="translate(1.782290, 2.151947)">
            <path d="M16.7932734,1.42108547e-14 C19.729984,1.42108547e-14 22.7974874,10.7652912 33.7865065,10.7652912 C44.7755255,10.7652912 25.5522576,29.6579119 18.8849836,29.6579119 C12.2177097,29.6579119 0,22.2058756 0,14.8289726 C6.8915191,11.5768703 10.638294,8.40143481 11.2403248,5.30266618 C12.143371,0.654513223 13.8565629,1.42108547e-14 16.7932734,1.42108547e-14 Z" stroke="#D44E07" stroke-width="3" fill="#FF5D1F"></path>
            <path d="M5.77205771,16.8820497 C19.2317563,17.59305 24.5970362,16.8820497 31.3561182,16.8820497 C38.1152003,16.8820497 24.7568653,26.848053 18.564088,26.848053 C12.3713106,26.848053 -7.68764091,16.1710495 5.77205771,16.8820497 Z" id="Path" fill="#7A0808"></path>
        </g>
    </g>
</svg>