<?xml version="1.0" encoding="UTF-8"?>
<svg width="118px" height="77px" viewBox="0 0 118 77" version="1.1" xmlns="http://www.w3.org/2000/svg" xmlns:xlink="http://www.w3.org/1999/xlink">
    <title>headset</title>
    <g id="Page-1" stroke="none" stroke-width="1" fill="none" fill-rule="evenodd">
        <g id="headset" transform="translate(0.000000, 2.993250)" stroke="#979797">
            <path d="M68,69.8361962 C84.3718772,72.9066673 96.2089648,68.9713731 103.511263,58.0303135 C114.464709,41.6187242 106.865091,-7.10542736e-15 60,-7.10542736e-15 C28.7566059,-7.10542736e-15 11.1884949,14.3355832 7.29566719,43.0067496" id="Path-2" stroke-width="5" stroke-linecap="round" stroke-linejoin="round"></path>
            <path d="M12.85,20.2517496 C13.6521936,20.2517496 14.3784436,20.5769028 14.9041452,21.1026044 C15.4298468,21.628306 15.755,22.354556 15.755,23.1567496 L15.755,23.1567496 L15.755,54.8567496 C15.755,55.6589432 15.4298468,56.3851932 14.9041452,56.9108948 C14.3784436,57.4365964 13.6521936,57.7617496 12.85,57.7617496 L12.85,57.7617496 L8.5,57.7617496 C6.49658707,57.7617496 4.68283707,56.9497061 3.3699403,55.6368093 C2.05704353,54.3239126 1.245,52.5101626 1.245,50.5067496 L1.245,50.5067496 L1.245,27.5067496 C1.245,25.5033367 2.05704353,23.6895867 3.3699403,22.3766899 C4.68283707,21.0637932 6.49658707,20.2517496 8.5,20.2517496 L8.5,20.2517496 Z" id="Rectangle" stroke-width="2.49" fill="#E4E4E4"></path>
            <path d="M111.85,20.2517496 C112.652194,20.2517496 113.378444,20.5769028 113.904145,21.1026044 C114.429847,21.628306 114.755,22.354556 114.755,23.1567496 L114.755,23.1567496 L114.755,54.8567496 C114.755,55.6589432 114.429847,56.3851932 113.904145,56.9108948 C113.378444,57.4365964 112.652194,57.7617496 111.85,57.7617496 L111.85,57.7617496 L107.5,57.7617496 C105.496587,57.7617496 103.682837,56.9497061 102.36994,55.6368093 C101.057044,54.3239126 100.245,52.5101626 100.245,50.5067496 L100.245,50.5067496 L100.245,27.5067496 C100.245,25.5033367 101.057044,23.6895867 102.36994,22.3766899 C103.682837,21.0637932 105.496587,20.2517496 107.5,20.2517496 L107.5,20.2517496 Z" id="Rectangle-Copy" stroke-width="2.49" fill="#E4E4E4" transform="translate(107.500000, 39.006750) scale(-1, 1) rotate(3.000000) translate(-107.500000, -39.006750) "></path>
        </g>
    </g>
</svg>